<svg width="75" height="15" viewBox="0 0 75 15" fill="none" xmlns="http://www.w3.org/2000/svg">
<path d="M7.36328 0.5L9.78672 4.16442L14.0207 5.33688L11.2845 8.77408L11.4778 13.1631L7.36328 11.623L3.24878 13.1631L3.44208 8.77408L0.705885 5.33688L4.93984 4.16442L7.36328 0.5Z" fill="#E60000"/>
<path d="M22.3633 0.5L24.7867 4.16442L29.0207 5.33688L26.2845 8.77408L26.4778 13.1631L22.3633 11.623L18.2488 13.1631L18.4421 8.77408L15.7059 5.33688L19.9398 4.16442L22.3633 0.5Z" fill="#E60000"/>
<path d="M37.3633 0.5L39.7867 4.16442L44.0207 5.33688L41.2845 8.77408L41.4778 13.1631L37.3633 11.623L33.2488 13.1631L33.4421 8.77408L30.7059 5.33688L34.9398 4.16442L37.3633 0.5Z" fill="#E60000"/>
<path d="M52.3633 0.5L54.7867 4.16442L59.0207 5.33688L56.2845 8.77408L56.4778 13.1631L52.3633 11.623L48.2488 13.1631L48.4421 8.77408L45.7059 5.33688L49.9398 4.16442L52.3633 0.5Z" fill="#E60000"/>
<path d="M63.2801 14.5L67.9996 12.7973V0.5L65.2198 4.55129L60.3633 5.84752L63.5018 9.64759L63.2801 14.5Z" fill="#E60000"/>
<path d="M70.5482 4.55129L68 0.5V12.7973L72.3262 14.5L72.123 9.64759L75 5.84752L70.5482 4.55129Z" fill="#999999"/>
</svg>
