<svg width="21" height="20" viewBox="0 0 21 20" fill="none" xmlns="http://www.w3.org/2000/svg">
<path d="M10.1987 12.5C11.5794 12.5 12.6987 11.3807 12.6987 10C12.6987 8.61929 11.5794 7.5 10.1987 7.5C8.81802 7.5 7.69873 8.61929 7.69873 10C7.69873 11.3807 8.81802 12.5 10.1987 12.5Z" fill="#999999"/>
<path fill-rule="evenodd" clip-rule="evenodd" d="M1.30157 9.53891C2.54095 5.81309 6.05532 3.125 10.1992 3.125C14.3411 3.125 17.8541 5.8106 19.095 9.53371C19.1953 9.8346 19.1954 10.1601 19.0953 10.4611C17.8559 14.1869 14.3415 16.875 10.1977 16.875C6.05579 16.875 2.54276 14.1894 1.30185 10.4663C1.20156 10.1654 1.20147 9.83986 1.30157 9.53891ZM14.5737 10C14.5737 12.4162 12.615 14.375 10.1987 14.375C7.78249 14.375 5.82373 12.4162 5.82373 10C5.82373 7.58375 7.78249 5.625 10.1987 5.625C12.615 5.625 14.5737 7.58375 14.5737 10Z" fill="#999999"/>
</svg>
