<svg width="20" height="21" viewBox="0 0 20 21" fill="none" xmlns="http://www.w3.org/2000/svg">
<path d="M9.56663 3.41557C9.72675 3.03059 10.2721 3.03059 10.4322 3.41557L12.2039 7.67511C12.2714 7.83741 12.424 7.9483 12.5992 7.96235L17.1978 8.33101C17.6134 8.36433 17.7819 8.88301 17.4653 9.15426L13.9617 12.1555C13.8282 12.2698 13.7699 12.4492 13.8106 12.6202L14.8811 17.1076C14.9778 17.5132 14.5366 17.8338 14.1808 17.6164L10.2438 15.2117C10.0938 15.1201 9.9051 15.1201 9.7551 15.2117L5.8181 17.6164C5.46228 17.8338 5.02106 17.5132 5.11781 17.1076L6.18822 12.6202C6.229 12.4492 6.1707 12.2698 6.03721 12.1555L2.53361 9.15426C2.21695 8.88301 2.38548 8.36433 2.80109 8.33101L7.39963 7.96235C7.57485 7.9483 7.72748 7.83741 7.79498 7.67511L9.56663 3.41557Z" stroke="#999999" stroke-linecap="round" stroke-linejoin="round"/>
</svg>
