<svg width="95" height="19" viewBox="0 0 95 19" fill="none" xmlns="http://www.w3.org/2000/svg">
<path d="M9 0.5L12.1158 5.2114L17.5595 6.71885L14.0416 11.1381L14.2901 16.7812L9 14.801L3.70993 16.7812L3.95845 11.1381L0.440492 6.71885L5.88415 5.2114L9 0.5Z" fill="#E60000"/>
<path d="M28 0.5L31.1158 5.2114L36.5595 6.71885L33.0416 11.1381L33.2901 16.7812L28 14.801L22.7099 16.7812L22.9584 11.1381L19.4405 6.71885L24.8842 5.2114L28 0.5Z" fill="#E60000"/>
<path d="M47 0.5L50.1158 5.2114L55.5595 6.71885L52.0416 11.1381L52.2901 16.7812L47 14.801L41.7099 16.7812L41.9584 11.1381L38.4405 6.71885L43.8842 5.2114L47 0.5Z" fill="#E60000"/>
<path d="M66 0.5L69.1158 5.2114L74.5595 6.71885L71.0416 11.1381L71.2901 16.7812L66 14.801L60.7099 16.7812L60.9584 11.1381L57.4405 6.71885L62.8842 5.2114L66 0.5Z" fill="#E60000"/>
<path d="M79.7502 18.5L85.8182 16.3108V0.5L82.2441 5.7088L76 7.37539L80.0353 12.2612L79.7502 18.5Z" fill="#E60000"/>
<path d="M89.0946 5.7088L85.8184 0.5V16.3108L91.3807 18.5L91.1194 12.2612L94.8184 7.37539L89.0946 5.7088Z" fill="#999999"/>
</svg>
