<svg width="94" height="19" viewBox="0 0 94 19" fill="none" xmlns="http://www.w3.org/2000/svg">
<path d="M9 0.5L12.1158 5.2114L17.5595 6.71885L14.0416 11.1381L14.2901 16.7812L9 14.801L3.70993 16.7812L3.95845 11.1381L0.440492 6.71885L5.88415 5.2114L9 0.5Z" fill="#E60000"/>
<path d="M28 0.5L31.1158 5.2114L36.5595 6.71885L33.0416 11.1381L33.2901 16.7812L28 14.801L22.7099 16.7812L22.9584 11.1381L19.4405 6.71885L24.8842 5.2114L28 0.5Z" fill="#E60000"/>
<path d="M47 0.5L50.1158 5.2114L55.5595 6.71885L52.0416 11.1381L52.2901 16.7812L47 14.801L41.7099 16.7812L41.9584 11.1381L38.4405 6.71885L43.8842 5.2114L47 0.5Z" fill="#E60000"/>
<path d="M66 0.5L69.1158 5.2114L74.5595 6.71885L71.0416 11.1381L71.2901 16.7812L66 14.801L60.7099 16.7812L60.9584 11.1381L57.4405 6.71885L62.8842 5.2114L66 0.5Z" fill="#E60000"/>
<path d="M85 0.5L88.1158 5.2114L93.5595 6.71885L90.0416 11.1381L90.2901 16.7812L85 14.801L79.7099 16.7812L79.9584 11.1381L76.4405 6.71885L81.8842 5.2114L85 0.5Z" fill="#999999"/>
</svg>
