<svg width="74" height="15" viewBox="0 0 74 15" fill="none" xmlns="http://www.w3.org/2000/svg">
<path d="M7 0.5L9.42344 4.16442L13.6574 5.33688L10.9212 8.77408L11.1145 13.1631L7 11.623L2.8855 13.1631L3.07879 8.77408L0.342604 5.33688L4.57656 4.16442L7 0.5Z" fill="#E60000"/>
<path d="M22 0.5L24.4234 4.16442L28.6574 5.33688L25.9212 8.77408L26.1145 13.1631L22 11.623L17.8855 13.1631L18.0788 8.77408L15.3426 5.33688L19.5766 4.16442L22 0.5Z" fill="#E60000"/>
<path d="M37 0.5L39.4234 4.16442L43.6574 5.33688L40.9212 8.77408L41.1145 13.1631L37 11.623L32.8855 13.1631L33.0788 8.77408L30.3426 5.33688L34.5766 4.16442L37 0.5Z" fill="#E60000"/>
<path d="M52 0.5L54.4234 4.16442L58.6574 5.33688L55.9212 8.77408L56.1145 13.1631L52 11.623L47.8855 13.1631L48.0788 8.77408L45.3426 5.33688L49.5766 4.16442L52 0.5Z" fill="#E60000"/>
<path d="M67 0.5L69.4234 4.16442L73.6574 5.33688L70.9212 8.77408L71.1145 13.1631L67 11.623L62.8855 13.1631L63.0788 8.77408L60.3426 5.33688L64.5766 4.16442L67 0.5Z" fill="#E60000"/>
</svg>
