<svg width="117" height="30" viewBox="0 0 117 30" fill="none" xmlns="http://www.w3.org/2000/svg">
<rect x="0.779297" y="0.5" width="115.72" height="29" rx="14.5" fill="#141414"/>
<rect x="0.779297" y="0.5" width="115.72" height="29" rx="14.5" stroke="#262626"/>
<path d="M15.2793 8L17.7027 11.6644L21.9367 12.8369L19.2005 16.2741L19.3938 20.6631L15.2793 19.123L11.1648 20.6631L11.3581 16.2741L8.6219 12.8369L12.8559 11.6644L15.2793 8Z" fill="#E60000"/>
<path d="M30.2793 8L32.7027 11.6644L36.9367 12.8369L34.2005 16.2741L34.3938 20.6631L30.2793 19.123L26.1648 20.6631L26.3581 16.2741L23.6219 12.8369L27.8559 11.6644L30.2793 8Z" fill="#E60000"/>
<path d="M45.2793 8L47.7027 11.6644L51.9367 12.8369L49.2005 16.2741L49.3938 20.6631L45.2793 19.123L41.1648 20.6631L41.3581 16.2741L38.6219 12.8369L42.8559 11.6644L45.2793 8Z" fill="#E60000"/>
<path d="M60.2793 8L62.7027 11.6644L66.9367 12.8369L64.2005 16.2741L64.3938 20.6631L60.2793 19.123L56.1648 20.6631L56.3581 16.2741L53.6219 12.8369L57.8559 11.6644L60.2793 8Z" fill="#E60000"/>
<path d="M71.0907 22L75.6395 20.2973V8L72.9602 12.0513L68.2793 13.3475L71.3044 17.1476L71.0907 22Z" fill="#E60000"/>
<path d="M78.3189 12.0513L75.6396 8V20.2973L80.1885 22L79.9748 17.1476L82.9999 13.3475L78.3189 12.0513Z" fill="#999999"/>
<path d="M87.6 19.994L87.606 19.034L91.44 15.584C91.76 15.296 91.974 15.024 92.082 14.768C92.194 14.508 92.25 14.242 92.25 13.97C92.25 13.638 92.174 13.338 92.022 13.07C91.87 12.802 91.662 12.59 91.398 12.434C91.138 12.278 90.842 12.2 90.51 12.2C90.166 12.2 89.86 12.282 89.592 12.446C89.324 12.606 89.112 12.82 88.956 13.088C88.804 13.356 88.73 13.648 88.734 13.964H87.642C87.642 13.42 87.768 12.94 88.02 12.524C88.272 12.104 88.614 11.776 89.046 11.54C89.482 11.3 89.976 11.18 90.528 11.18C91.064 11.18 91.544 11.304 91.968 11.552C92.392 11.796 92.726 12.13 92.97 12.554C93.218 12.974 93.342 13.45 93.342 13.982C93.342 14.358 93.294 14.684 93.198 14.96C93.106 15.236 92.962 15.492 92.766 15.728C92.57 15.96 92.324 16.208 92.028 16.472L88.842 19.334L88.704 18.974H93.342V19.994H87.6ZM97.6935 20.18C97.1335 20.18 96.6335 20.054 96.1935 19.802C95.7575 19.546 95.4115 19.2 95.1555 18.764C94.9035 18.324 94.7775 17.824 94.7775 17.264V14.096C94.7775 13.536 94.9035 13.036 95.1555 12.596C95.4115 12.156 95.7575 11.81 96.1935 11.558C96.6335 11.306 97.1335 11.18 97.6935 11.18C98.2535 11.18 98.7535 11.306 99.1935 11.558C99.6335 11.81 99.9795 12.156 100.232 12.596C100.484 13.036 100.61 13.536 100.61 14.096V17.264C100.61 17.824 100.484 18.324 100.232 18.764C99.9795 19.2 99.6335 19.546 99.1935 19.802C98.7535 20.054 98.2535 20.18 97.6935 20.18ZM97.6935 19.154C98.0335 19.154 98.3415 19.072 98.6175 18.908C98.8935 18.744 99.1135 18.524 99.2775 18.248C99.4415 17.968 99.5235 17.66 99.5235 17.324V14.03C99.5235 13.69 99.4415 13.382 99.2775 13.106C99.1135 12.83 98.8935 12.61 98.6175 12.446C98.3415 12.282 98.0335 12.2 97.6935 12.2C97.3575 12.2 97.0495 12.282 96.7695 12.446C96.4935 12.61 96.2735 12.83 96.1095 13.106C95.9455 13.382 95.8635 13.69 95.8635 14.03V17.324C95.8635 17.66 95.9455 17.968 96.1095 18.248C96.2735 18.524 96.4935 18.744 96.7695 18.908C97.0495 19.072 97.3575 19.154 97.6935 19.154ZM102.289 20V11.36H103.357V15.416L107.137 11.36H108.481L104.557 15.554L108.787 20H107.407L103.357 15.776V20H102.289Z" fill="#999999"/>
</svg>
