<svg width="44" height="44" viewBox="0 0 44 44" fill="none" xmlns="http://www.w3.org/2000/svg">
<rect x="0.5" y="0.5" width="43" height="43" rx="5.5" fill="#1A1A1A"/>
<rect x="0.5" y="0.5" width="43" height="43" rx="5.5" stroke="#262626"/>
<g clip-path="url(#clip0_315_5779)">
<path d="M18.2918 30.125C25.8371 30.125 29.9652 23.8723 29.9652 18.4516C29.9652 18.2758 29.9613 18.0961 29.9535 17.9203C30.7566 17.3396 31.4496 16.6202 32 15.7961C31.2521 16.1288 30.458 16.3462 29.6449 16.4406C30.5011 15.9274 31.1421 15.1212 31.4492 14.1715C30.6438 14.6488 29.763 14.9855 28.8445 15.1672C28.2257 14.5096 27.4075 14.0743 26.5164 13.9284C25.6253 13.7825 24.711 13.9342 23.9148 14.3601C23.1186 14.786 22.4848 15.4623 22.1115 16.2844C21.7382 17.1066 21.6462 18.0288 21.8496 18.9086C20.2187 18.8267 18.6233 18.4031 17.1667 17.6651C15.71 16.9271 14.4247 15.8912 13.3941 14.6246C12.8703 15.5277 12.71 16.5964 12.9459 17.6134C13.1817 18.6304 13.7959 19.5195 14.6637 20.1C14.0122 20.0793 13.375 19.9039 12.8047 19.5883V19.6391C12.8041 20.5868 13.1317 21.5055 13.7319 22.239C14.3321 22.9725 15.1678 23.4755 16.0969 23.6625C15.4934 23.8276 14.86 23.8517 14.2457 23.7328C14.5079 24.5479 15.018 25.2607 15.7048 25.7719C16.3916 26.2831 17.2209 26.5672 18.077 26.5844C16.6237 27.7259 14.8285 28.3451 12.9805 28.3422C12.6527 28.3417 12.3253 28.3216 12 28.282C13.8774 29.4865 16.0613 30.1262 18.2918 30.125Z" fill="white"/>
</g>
<defs>
<clipPath id="clip0_315_5779">
<rect width="20" height="20" fill="white" transform="translate(12 12)"/>
</clipPath>
</defs>
</svg>
