<svg width="21" height="20" viewBox="0 0 21 20" fill="none" xmlns="http://www.w3.org/2000/svg">
<path d="M10.5991 12.5C11.9798 12.5 13.0991 11.3807 13.0991 10C13.0991 8.61929 11.9798 7.5 10.5991 7.5C9.21841 7.5 8.09912 8.61929 8.09912 10C8.09912 11.3807 9.21841 12.5 10.5991 12.5Z" fill="#999999"/>
<path fill-rule="evenodd" clip-rule="evenodd" d="M1.70196 9.53891C2.94134 5.81309 6.45571 3.125 10.5996 3.125C14.7415 3.125 18.2545 5.8106 19.4954 9.53371C19.5957 9.8346 19.5958 10.1601 19.4957 10.4611C18.2563 14.1869 14.7419 16.875 10.5981 16.875C6.45618 16.875 2.94315 14.1894 1.70224 10.4663C1.60195 10.1654 1.60186 9.83986 1.70196 9.53891ZM14.9741 10C14.9741 12.4162 13.0154 14.375 10.5991 14.375C8.18288 14.375 6.22412 12.4162 6.22412 10C6.22412 7.58375 8.18288 5.625 10.5991 5.625C13.0154 5.625 14.9741 7.58375 14.9741 10Z" fill="#999999"/>
</svg>
